name analog
datacolumns 19
datarows 42
range 0.40900000000000003 0.4295
endheader
time	ground_force_vx	ground_force_vy	ground_force_vz	ground_force_px	ground_force_py	ground_force_pz	l_ground_force_vx	l_ground_force_vy	l_ground_force_vz	l_ground_force_px	l_ground_force_py	l_ground_force_pz	ground_torque_x	ground_torque_y	ground_torque_z	l_ground_torque_x	l_ground_torque_y	l_ground_torque_z
0.40900000000000003	-0.0	-0.0	-0.0	18.95389938354492	-9.482396125793455	-954.7138671875	-0.0	-0.0	-0.0	-0.0	-0.0	-0.0	-0.0	-0.0	-0.0	-0.0	-0.0	-0.0
0.40950000000000003	-0.0	-0.0	-0.0	20.13753318786621	-10.62358570098877	-957.7288208007812	-0.0	-0.0	-0.0	-0.0	-0.0	-0.0	-0.0	-0.0	-0.0	-0.0	-0.0	-0.0
0.41000000000000003	-0.0	-0.0	-0.0	20.61483383178711	-11.124417304992676	-960.2962646484376	-0.0	-0.0	-0.0	-0.0	-0.0	-0.0	-0.0	-0.0	-0.0	-0.0	-0.0	-0.0
0.41050000000000003	-0.0	-0.0	-0.0	20.380895614624023	-12.227594375610352	-962.6435546875	-0.0	-0.0	-0.0	-0.0	-0.0	-0.0	-0.0	-0.0	-0.0	-0.0	-0.0	-0.0
0.41100000000000003	-0.0	-0.0	-0.0	19.309104919433597	-12.275789260864258	-966.2044067382812	-0.0	-0.0	-0.0	-0.0	-0.0	-0.0	-0.0	-0.0	-0.0	-0.0	-0.0	-0.0
0.41150000000000003	-0.0	-0.0	-0.0	17.95559310913086	-12.235122680664062	-966.9105834960938	-0.0	-0.0	-0.0	-0.0	-0.0	-0.0	-0.0	-0.0	-0.0	-0.0	-0.0	-0.0
0.41200000000000003	-0.0	-0.0	-0.0	16.974342346191406	-12.14605712890625	-965.4976196289062	-0.0	-0.0	-0.0	-0.0	-0.0	-0.0	-0.0	-0.0	-0.0	-0.0	-0.0	-0.0
0.41250000000000003	-0.0	-0.0	-0.0	15.473799705505373	-11.943473815917969	-966.9732666015624	-0.0	-0.0	-0.0	-0.0	-0.0	-0.0	-0.0	-0.0	-0.0	-0.0	-0.0	-0.0
0.41300000000000003	-0.0	-0.0	-0.0	14.298147201538086	-11.457578659057615	-966.3286743164062	-0.0	-0.0	-0.0	-0.0	-0.0	-0.0	-0.0	-0.0	-0.0	-0.0	-0.0	-0.0
0.41350000000000003	-0.0	-0.0	-0.0	13.85881805419922	-11.789730072021484	-966.4855346679688	-0.0	-0.0	-0.0	-0.0	-0.0	-0.0	-0.0	-0.0	-0.0	-0.0	-0.0	-0.0
0.41400000000000003	-0.0	-0.0	-0.0	13.421586990356444	-12.29999542236328	-967.3963012695312	-0.0	-0.0	-0.0	-0.0	-0.0	-0.0	-0.0	-0.0	-0.0	-0.0	-0.0	-0.0
0.41450000000000004	-0.0	-0.0	-0.0	13.030595779418944	-12.438384056091309	-969.404541015625	-0.0	-0.0	-0.0	-0.0	-0.0	-0.0	-0.0	-0.0	-0.0	-0.0	-0.0	-0.0
0.41500000000000004	-0.0	-0.0	-0.0	12.57868194580078	-12.864826202392578	-973.4830322265624	-0.0	-0.0	-0.0	-0.0	-0.0	-0.0	-0.0	-0.0	-0.0	-0.0	-0.0	-0.0
0.41550000000000004	-0.0	-0.0	-0.0	12.281283378601074	-12.83477783203125	-977.4058837890624	-0.0	-0.0	-0.0	-0.0	-0.0	-0.0	-0.0	-0.0	-0.0	-0.0	-0.0	-0.0
0.41600000000000004	-0.0	-0.0	-0.0	12.7717924118042	-12.602347373962402	-979.8776245117188	-0.0	-0.0	-0.0	-0.0	-0.0	-0.0	-0.0	-0.0	-0.0	-0.0	-0.0	-0.0
0.4165	-0.0	-0.0	-0.0	12.757102966308594	-12.103221893310549	-982.0947265625	-0.0	-0.0	-0.0	-0.0	-0.0	-0.0	-0.0	-0.0	-0.0	-0.0	-0.0	-0.0
0.417	-0.0	-0.0	-0.0	13.178194046020508	-11.547699928283691	-982.531982421875	-0.0	-0.0	-0.0	-0.0	-0.0	-0.0	-0.0	-0.0	-0.0	-0.0	-0.0	-0.0
0.4175	-0.0	-0.0	-0.0	12.999699592590332	-10.65654182434082	-985.6819458007812	-0.0	-0.0	-0.0	-0.0	-0.0	-0.0	-0.0	-0.0	-0.0	-0.0	-0.0	-0.0
0.418	-0.0	-0.0	-0.0	12.614952087402344	-9.893474578857422	-985.1624145507812	-0.0	-0.0	-0.0	-0.0	-0.0	-0.0	-0.0	-0.0	-0.0	-0.0	-0.0	-0.0
0.4185	-0.0	-0.0	-0.0	12.6014404296875	-10.238627433776855	-987.3370361328124	-0.0	-0.0	-0.0	-0.0	-0.0	-0.0	-0.0	-0.0	-0.0	-0.0	-0.0	-0.0
0.419	-0.0	-0.0	-0.0	13.011184692382812	-10.058197975158691	-990.0557250976562	-0.0	-0.0	-0.0	-0.0	-0.0	-0.0	-0.0	-0.0	-0.0	-0.0	-0.0	-0.0
0.4195	-0.0	-0.0	-0.0	14.147324562072754	-10.784778594970703	-993.5482177734376	-0.0	-0.0	-0.0	-0.0	-0.0	-0.0	-0.0	-0.0	-0.0	-0.0	-0.0	-0.0
0.42	-0.0	-0.0	-0.0	15.36954402923584	-10.708837509155272	-994.3540649414062	-0.0	-0.0	-0.0	-0.0	-0.0	-0.0	-0.0	-0.0	-0.0	-0.0	-0.0	-0.0
0.4205	-0.0	-0.0	-0.0	15.816243171691896	-10.848525047302246	-994.6061401367188	-0.0	-0.0	-0.0	-0.0	-0.0	-0.0	-0.0	-0.0	-0.0	-0.0	-0.0	-0.0
0.421	-0.0	-0.0	-0.0	16.542020797729492	-11.72716999053955	-996.8753662109376	-0.0	-0.0	-0.0	-0.0	-0.0	-0.0	-0.0	-0.0	-0.0	-0.0	-0.0	-0.0
0.4215	-0.0	-0.0	-0.0	15.612131118774414	-11.84144401550293	-998.237548828125	-0.0	-0.0	-0.0	-0.0	-0.0	-0.0	-0.0	-0.0	-0.0	-0.0	-0.0	-0.0
0.422	-0.0	-0.0	-0.0	14.591774940490724	-11.47225284576416	-999.75390625	-0.0	-0.0	-0.0	-0.0	-0.0	-0.0	-0.0	-0.0	-0.0	-0.0	-0.0	-0.0
0.4225	-0.0	-0.0	-0.0	12.413622856140137	-10.848288536071776	-999.1947021484376	-0.0	-0.0	-0.0	-0.0	-0.0	-0.0	-0.0	-0.0	-0.0	-0.0	-0.0	-0.0
0.423	-0.0	-0.0	-0.0	10.82018756866455	-9.828447341918944	-999.7506103515624	-0.0	-0.0	-0.0	-0.0	-0.0	-0.0	-0.0	-0.0	-0.0	-0.0	-0.0	-0.0
0.4235	-0.0	-0.0	-0.0	9.468222618103027	-9.229970932006836	-998.7457275390624	-0.0	-0.0	-0.0	-0.0	-0.0	-0.0	-0.0	-0.0	-0.0	-0.0	-0.0	-0.0
0.424	-0.0	-0.0	-0.0	8.334123611450195	-9.12641143798828	-998.0401000976562	-0.0	-0.0	-0.0	-0.0	-0.0	-0.0	-0.0	-0.0	-0.0	-0.0	-0.0	-0.0
0.4245	-0.0	-0.0	-0.0	7.277854919433594	-9.07691764831543	-998.747314453125	-0.0	-0.0	-0.0	-0.0	-0.0	-0.0	-0.0	-0.0	-0.0	-0.0	-0.0	-0.0
0.425	-0.0	-0.0	-0.0	6.475062370300293	-8.645648956298828	-998.8955688476562	-0.0	-0.0	-0.0	-0.0	-0.0	-0.0	-0.0	-0.0	-0.0	-0.0	-0.0	-0.0
0.4255	-0.0	-0.0	-0.0	6.118366241455078	-9.232436180114746	-999.9405517578124	-0.0	-0.0	-0.0	-0.0	-0.0	-0.0	-0.0	-0.0	-0.0	-0.0	-0.0	-0.0
0.426	-0.0	-0.0	-0.0	5.211266040802002	-9.232538223266602	-999.9990844726562	-0.0	-0.0	-0.0	-0.0	-0.0	-0.0	-0.0	-0.0	-0.0	-0.0	-0.0	-0.0
0.4265	-0.0	-0.0	-0.0	4.958855152130127	-9.039071083068848	-1001.4293823242188	-0.0	-0.0	-0.0	-0.0	-0.0	-0.0	-0.0	-0.0	-0.0	-0.0	-0.0	-0.0
0.427	-0.0	-0.0	-0.0	4.707004547119141	-8.645648956298828	-1002.0952758789062	-0.0	-0.0	-0.0	-0.0	-0.0	-0.0	-0.0	-0.0	-0.0	-0.0	-0.0	-0.0
0.4275	-0.0	-0.0	-0.0	4.470948219299316	-8.729366302490234	-1005.1088256835938	-0.0	-0.0	-0.0	-0.0	-0.0	-0.0	-0.0	-0.0	-0.0	-0.0	-0.0	-0.0
0.428	-0.0	-0.0	-0.0	4.124138832092285	-8.51999568939209	-1006.06494140625	-0.0	-0.0	-0.0	-0.0	-0.0	-0.0	-0.0	-0.0	-0.0	-0.0	-0.0	-0.0
0.4285	-0.0	-0.0	-0.0	2.719090461730957	-8.923049926757812	-1006.0258178710938	-0.0	-0.0	-0.0	-0.0	-0.0	-0.0	-0.0	-0.0	-0.0	-0.0	-0.0	-0.0
0.429	-0.0	-0.0	-0.0	2.735929250717163	-9.233280181884766	-1007.1911010742188	-0.0	-0.0	-0.0	-0.0	-0.0	-0.0	-0.0	-0.0	-0.0	-0.0	-0.0	-0.0
0.4295	-0.0	-0.0	-0.0	2.7293577194213867	-9.259923934936523	-1008.9300537109376	-0.0	-0.0	-0.0	-0.0	-0.0	-0.0	-0.0	-0.0	-0.0	-0.0	-0.0	-0.0
